<svg preserveAspectRatio="xMinYMin meet" viewBox="0 0 177 43" width="177" height="43" xmlns="http://www.w3.org/2000/svg"><g fill="#455065" fill-rule="nonzero"><path d="M89.3 5.55H74.52l.9-2.55H89.3zM49.84 3h13.73l.9 2.55H49.84zM38.9 3a10.1 10.1 0 0 1 5.87 2.55H19.85V3H38.9zM.25 3h17.32v2.55H.25zM89.3 10.4H72.8l.9-2.55h15.6zM66.18 10.4H49.84V7.85h15.44zM46.74 7.85c.32.82.73 1.56.73 2.55H19.85V7.85h26.89zM.25 7.85h17.32v2.55H.25zM71.08 15.25l.9-2.55H84.4v2.55zM67 12.7l.9 2.55H54.66V12.7zM47.72 12.7c0 .9-.09 1.8-.33 2.55h-7.52V12.7h7.85zM5.15 12.7h7.44v2.55H5.15zM24.84 12.7h7.44v2.55h-7.44zM62.01 18.04v1.97h-7.35v-2.54h13.97l.9 2.38.82-2.38H84.4V20h-7.27v-1.97l-.65 1.97H62.75zM24.84 17.38h21.32c-.49.83-1.3 1.9-2.12 2.55h-19.2v-2.55zM5.15 17.38h7.44v2.55H5.15zM77.13 22.23h7.27v2.55h-7.27zM62.01 22.23h-7.35v2.55h7.35zM75.66 22.23s-.82 2.55-.9 2.55H64.38l-.9-2.55h12.18zM24.84 22.23h19.2c.9.74 1.63 1.65 2.29 2.55h-21.5v-2.55zM12.58 24.78v-2.55H5.15v2.55h7.43zM77.13 27.09h7.27v2.55h-7.27zM54.67 27.09h7.35v2.55h-7.35zM73.05 29.63l.9-2.55h-8.83l.9 2.55zM24.84 29.63v-2.55h7.52v2.55h-7.52zM47.39 27.08c.33.74.4 1.73.49 2.55h-8v-2.55h7.5zM5.15 27.09h7.44v2.55H5.15zM77.13 31.77H89.3v2.55H77.13zM49.84 31.77h12.17v2.55H49.84zM71.41 34.32h-3.68l-.9-2.55h5.48zM.25 31.77v2.55h17.32v-2.55zM47.55 31.77c-.16.82-.32 1.89-.98 2.55H19.85v-2.55h27.7zM69.78 39.16h-.41l-.82-2.54h2.04zM77.13 36.62H89.3v2.55H77.13zM19.85 39.16v-2.54h25.09a9.26 9.26 0 0 1-6.46 2.54H19.85M49.84 36.62h12.17v2.55H49.84zM17.57 36.62v2.54H.25v-2.54z"/></g></svg>
