<svg height="43" preserveAspectRatio="xMinYMin meet" width="177" xmlns="http://www.w3.org/2000/svg"><path d="M97.009 12.028s-1.72-1.064-2.785-1.476c0 0-3.295-1.527-3.948-2.254 0 0-1.284-1.21-.532-2.615 0 0 .314-.92 1.672-.92 0 0 1.766.098 1.766 1.55V8.36h6.33l-.01-3.015s.487-4.94-7.457-5.158c0 0-6.247-.41-8.04 2.955 0 0-.703.75-.703 3.365v1.889s-.071 2.18 1.042 3.584c0 0 .629.92 2.179 1.937 0 0 3.147 1.694 5.036 2.665 0 0 1.906 1.089 1.656 2.82 0 0-.155 1.78-1.997 1.707 0 0-1.684-.075-1.684-1.82v-2.047H82.79v2.973s-.19 5.686 8.478 5.686c0 0 8.282.167 8.669-5.835v-2.421c-.002-.001.292-3.68-2.927-5.617zM64.599.895l-2.12 13.284h-.495L59.959 1.015H49.385l-.53 24.055h6.26l.075-18.125h.492l3.32 18.122h6.586l3.277-18.115h.436l.151 18.118h6.295L75.07.895zm-37.268.1l-4.166 24.047h6.74l2.468-18.645h.554l2.467 18.645h6.739L37.969.996zm141.425 10.702v3.547h1.729v3.807c0 1.862-1.592 1.895-1.592 1.895-1.934 0-1.861-1.768-1.861-1.768V6.008c0-1.357 1.716-1.43 1.716-1.43 1.648 0 1.659 1.619 1.659 1.619v2.002h6.346c.207-3.91-.572-4.856-.572-4.856-1.574-3.535-7.528-3.341-7.528-3.341-9.152 0-8.136 7.021-8.136 7.021v12.735c.197 6.585 9.215 5.916 9.367 5.91 4.01-.443 5.222-1.719 5.222-1.719 1.114-.828 1.402-1.975 1.402-1.975.32-.668.399-2.797.399-2.797v-7.481zm-21.034 3.914h-.277L141.006.9h-7.705v24.17h6.27l-.375-14.706h.28l6.672 14.707h7.472V.9h-6.35zm-29.729 3.439s.091 1.984-1.748 1.984c0 0-1.934.103-1.934-1.934L114.29.917h-6.878v18.038s-.705 6.828 8.93 6.828c0 0 8.372.099 8.372-6.514V.917h-6.72zM14.218 12.028s-1.72-1.064-2.785-1.474c0 0-3.292-1.526-3.945-2.254 0 0-1.284-1.212-.531-2.614 0 0 .313-.92 1.669-.92 0 0 1.767.096 1.767 1.548v2.048h6.332l-.011-3.017S17.197.405 9.258.189c0 0-.599-.039-1.477.005 0 0-4.81.258-6.53 2.897-.01.02-.024.035-.034.052 0 0-.702.75-.702 3.365v1.889s-.073 2.179 1.04 3.584c0 0 .63.92 2.18 1.936 0 0 3.146 1.695 5.036 2.666 0 0 1.909 1.086 1.656 2.82 0 0-.156 1.78-1.997 1.707 0 0-1.683-.075-1.683-1.82v-2.048H0v2.976s-.19 5.685 8.479 5.685c0 0 8.28.168 8.67-5.835v-2.42c0-.002.29-3.682-2.931-5.62z" fill="#455065" fill-rule="evenodd"/></svg>