<svg preserveAspectRatio="xMinYMin meet" viewBox="0 0 177 43" width="177" height="43" xmlns="http://www.w3.org/2000/svg"><g fill="#515763" fill-rule="nonzero"><path d="M46 13.23V24.4c0 4.54 3.09 7.42 7.59 7.42 4.73 0 7.63-3.04 7.63-7.72V13.23h-4v10.65c0 2.56-1.3 4.14-3.59 4.14-2.51 0-3.62-1.82-3.62-3.93V13.23H46zM63.17 13.39v18.24h6.38c3.53 0 6.53-1.8 6.53-5.37 0-3.74-3.26-4.56-3.26-4.56s2.42-.67 2.42-3.87c0-3.19-3.06-4.44-5.7-4.44h-6.37zm4.03 3.46h1.94c1.34 0 2.2.71 2.2 1.94 0 1.1-.73 1.94-2.1 1.94H67.2v-3.88zm0 6.73h2.14c2.02 0 2.71 1.03 2.71 2.27 0 1.43-.9 2.28-2.5 2.28H67.2v-4.55zM77.6 13.38h4.03v18.25H77.6zM121.54 31.63h-4.03V13.38h12.64v3.78h-8.61v4.18h7.84v3.05h-7.84zM131.63 13.38v3.78h5.2v14.47h4.07V17.16h5.1v-3.78zM86.22 25.56l-3.2 2.34s1.11 4.05 6.65 4.05c3.7 0 6.4-2.16 6.4-5.94 0-6.1-8.52-4.81-8.52-7.95 0-.82.73-1.55 2.09-1.55 2.17 0 3 2.13 3 2.13l3.2-2.25s-1.25-3.33-6.04-3.33c-3.94 0-6.03 2.53-6.03 5.13 0 6.22 8.28 4.87 8.28 8.14 0 1.1-.87 1.9-2.22 1.9-2.68 0-3.6-2.67-3.6-2.67zM106.47 13.05c-4.74 0-6.85 2.58-6.85 2.58l.61.61s-3.07 2.18-3.07 6.86c0 5.38 4.16 8.84 9.34 8.84 6.02 0 9.43-4.44 9.43-9.43 0-5.33-3.9-9.46-9.46-9.46zm.09 3.8c3.22 0 5.3 2.45 5.3 5.64 0 3.16-2.06 5.68-5.3 5.68-3.2 0-5.3-2.23-5.3-5.2 0-2.7 1.82-3.88 1.82-3.88l-.66-.66s1.41-1.59 4.14-1.59zM18.47 2C5.82 2 .37 13.26.37 13.26l1.6 1.15S-.05 18.26 0 23.2a19.6 19.6 0 0 0 19.82 19.57 19.6 19.6 0 0 0 19.59-19.54C39.4 9.12 28.47 2 18.47 2zm.11 3.44c9.89 0 17.56 7.96 17.56 17.22 0 9.82-7.38 16.65-15.99 16.65-6.33 0-12.04-4.82-12.04-11.44a9.11 9.11 0 0 1 4.3-7.9l.34.37c-.63.48-2.4 3.33-2.4 6.14 0 5.2 4.08 8.8 9.22 8.8 6.54 0 10.91-5.58 10.91-12.07 0-7.54-6.66-13.95-14.67-13.95-4.43 0-8.2 1.91-10.36 3.6l-.33-.31a15.8 15.8 0 0 1 13.46-7.11zm-2.95 7.21c5.12 0 10.11 3.39 11.36 8.19l-.46.17c-2.23-2.95-5.9-5.4-10.23-5.4-7.97 0-12.15 7.24-11.54 13.28l-.47.17s-.88-1.94-.88-4.24c0-6.67 5.48-12.17 12.22-12.17zm3.38 8.37a4.34 4.34 0 0 1 4.36 4.3c0 1.92-1.24 3.06-1.24 3.06l1.47 1.03s-1.45 2.28-4.42 2.28a5.34 5.34 0 0 1-.16-10.67z"/></g></svg>
