<svg height="28" viewBox="0 0 119 28" width="119" xmlns="http://www.w3.org/2000/svg"><g fill="#fff" transform="translate(0 -1)"><path d="m42.9010357 17.3195266-.6846951 1.8934912h-.0978136c-.0978135-.4733728-.2934407-1.1360947-.684695-1.8934912l-3.716916-9.18343193h-3.716916v14.67455623h2.4453395v-9.0887574-1.9881657c0-.3786982-.0978136-.6627219-.0978136-.9467456h.0978136c.0978135.5680474.2934407.9467456.3912543 1.2307693l4.4994246 10.6982248h1.7606444l4.4994247-10.7928994c0-.1893491.0978135-.6627219.1956271-1.1360947h.0978136c-.0978136 1.0414202-.0978136 2.0828403-.0978136 2.6508876v9.2781065h2.5431531v-14.57988163h-3.5212889zm9.8791714-5.112426h2.5431531v10.5088757h-2.5431531zm1.2715766-4.44970415c-.3912544 0-.7825087.18934911-1.0759494.37869822-.2934407.37869823-.4890679.6627219-.4890679 1.13609468 0 .37869822.1956272.75739645.4890679 1.04142015.2934407.2840236.684695.3786982 1.0759494.3786982.3912543 0 .7825086-.1893491 1.0759493-.3786982.2934408-.2840237.4890679-.56804737.4890679-1.04142015s-.1956271-.75739645-.4890679-1.04142012c-.2934407-.28402367-.684695-.47337278-1.0759493-.47337278zm10.1726122 4.35502955c-.4890679-.0946745-.9781358-.1893491-1.4672037-.1893491-1.173763 0-2.1518988.2840237-3.032221.7573965s-1.5650172 1.1360946-2.0540851 1.9881657c-.4890679.852071-.6846951 1.8934911-.6846951 3.0295858 0 1.0414201.1956272 1.8934911.6846951 2.7455621.4890679.7573964 1.0759493 1.4201183 1.9562716 1.8934911.7825086.4733728 1.7606444.6627219 2.7387802.6627219 1.1737629 0 2.2497123-.2840237 3.0322209-.6627219v-2.2721893l-.0978136.0946745c-.3912543.2840237-.7825086.4733728-1.2715765.6627219s-.8803222.1893491-1.1737629.1893491c-.9781358 0-1.858458-.2840236-2.3475259-.9467455-.5868815-.5680474-.8803222-1.4201184-.8803222-2.4615385s.2934407-1.8934911.8803222-2.556213c.5868814-.6627219 1.3693901-.9467456 2.3475259-.9467456.7825086 0 1.6628308.2840237 2.4453394.7573965l.0978136.0946745v-2.4615384c-.2934407-.0946746-.5868815-.2840237-1.1737629-.3786983zm8.4119677-.0946745c-.5868814 0-1.1737629.1893491-1.7606444.5680473-.3912543.3786982-.684695.852071-.9781358 1.4201184v-1.7988166h-2.543153v10.5088757h2.543153v-5.3964497c0-.9467455.1956272-1.704142.5868815-2.1775148.3912543-.5680473.9781358-.852071 1.6628308-.852071.1956272 0 .4890679.0946746.7825087.0946746.2934407.0946745.4890679.1893491.5868814.2840237l.0978136.0946745v-2.556213h-.0978136c-.0978135-.0946746-.4890678-.1893491-.8803222-.1893491zm6.8469506 0c-1.7606445 0-3.2278481.4733728-4.2059839 1.5147929s-1.4672037 2.3668639-1.4672037 4.1656805c0 1.6094674.4890679 2.9349112 1.4672037 3.8816568.9781358.9467455 2.2497123 1.4201183 3.9125431 1.4201183 1.7606444 0 3.1300345-.4733728 4.1081703-1.5147929s1.4672037-2.3668639 1.4672037-4.0710059-.4890679-3.0295858-1.4672037-3.9763314c-.7825086-.9467455-2.1518987-1.4201183-3.8147295-1.4201183zm2.0540851 8.0473373c-.4890679.5680473-1.1737629.852071-2.1518987.852071-.8803222 0-1.6628309-.2840237-2.1518988-.9467456-.4890679-.5680473-.7825086-1.4201183-.7825086-2.556213s.2934407-1.9881657.7825086-2.556213c.4890679-.5680474 1.2715766-.9467456 2.1518988-.9467456s1.5650172.2840237 2.1518987.852071.7825086 1.4201184.7825086 2.556213c-.0978135 1.2307693-.2934407 2.1775148-.7825086 2.7455622zm8.9988493-3.5029586c-.7825087-.2840237-1.2715766-.5680474-1.5650173-.7573965-.1956272-.1893491-.2934407-.4733728-.2934407-.7573964 0-.2840237.0978135-.5680474.3912543-.7573965.2934407-.1893491.5868815-.2840236 1.0759493-.2840236.3912544 0 .8803223.0946745 1.2715766.1893491.3912543.0946745.7825086.2840236 1.1737629.4733728l.0978136.0946745v-2.3668639h-.0978136c-.2934407-.0946746-.684695-.1893491-1.1737629-.2840237-.4890679-.0946745-.8803222-.0946745-1.2715766-.0946745-1.1737629 0-2.1518987.2840236-2.9344073.9467455-.7825086.5680474-1.173763 1.4201184-1.173763 2.2721894 0 .4733728.0978136.9467456.2934408 1.3254438.1956271.3786982.3912543.6627219.7825086.9467455.3912543.2840237.8803222.5680474 1.5650173.852071.5868814.2840237 1.0759493.4733728 1.2715765.5680474.2934407.1893491.4890679.2840237.5868815.4733728.0978135.1893491.1956271.3786982.1956271.5680473 0 .6627219-.5868815 1.0414201-1.6628308 1.0414201-.3912543 0-.8803222-.0946745-1.3693901-.2840236-.4890679-.1893492-.9781358-.3786983-1.4672037-.6627219l-.0978136-.0946746v2.3668639h.0978136c.3912543.1893491.7825086.2840237 1.3693901.3786982.5868815.0946746 1.0759494.1893491 1.4672037.1893491 1.2715765 0 2.3475259-.2840236 3.1300345-.9467455.7825086-.5680474 1.1737629-1.4201184 1.1737629-2.3668639 0-.6627219-.1956271-1.3254438-.5868814-1.7988166-.5868815-.3786982-1.2715766-.852071-2.2497123-1.2307692zm9.5857304-4.5443787c-1.7606441 0-3.2278478.4733728-4.2059836 1.5147929s-1.4672037 2.3668639-1.4672037 4.1656805c0 1.6094674.4890679 2.9349112 1.4672037 3.8816568.9781358.9467455 2.2497123 1.4201183 3.9125432 1.4201183 1.7606444 0 3.1300344-.4733728 4.1081704-1.5147929s1.467204-2.3668639 1.467204-4.0710059-.489068-3.0295858-1.467204-3.9763314c-.782509-.9467455-2.151899-1.4201183-3.81473-1.4201183zm1.956272 8.0473373c-.489068.5680473-1.173763.852071-2.1518989.852071-.9781358 0-1.6628308-.2840237-2.1518987-.9467456-.4890679-.5680473-.7825086-1.4201183-.7825086-2.556213s.2934407-1.9881657.7825086-2.556213c.4890679-.5680474 1.2715765-.9467456 2.1518987-.9467456.8803219 0 1.5650169.2840237 2.1518989.852071.489068.5680473.782508 1.4201184.782508 2.556213 0 1.2307693-.29344 2.1775148-.782508 2.7455622zm16.921749-5.775148v-2.0828402h-2.543153v-3.12426036h-.097814l-2.445339.75739645h-.097814v2.36686391h-3.814729v-1.3254438c0-.5680473.195627-1.04142011.391254-1.42011834.293441-.28402367.684695-.47337278 1.173763-.47337278.391254 0 .684695.09467456 1.173763.28402367l.097814.09467456v-2.1775148h-.097814c-.195627-.09467455-.684695-.18934911-1.271577-.18934911-.782508 0-1.467203.18934911-2.054085.47337278-.586881.28402367-1.075949.75739645-1.36939 1.32544379s-.489068 1.23076923-.489068 1.98816563v1.4201184h-1.760644v1.9881657h1.760644v8.52071h2.543153v-8.4260355h3.81473v5.3964497c0 2.1775148 1.075949 3.3136095 3.227848 3.3136095.391254 0 .684695-.0946746 1.075949-.0946746.391255-.0946745.684695-.1893491.782509-.2840236v-1.9881657l-.097814.0946746c-.195627.0946745-.29344.1893491-.489067.1893491-.195628.0946745-.391255.0946745-.489068.0946745-.489068 0-.880323-.0946745-1.07595-.3786982s-.391254-.6627219-.391254-1.3254438v-5.0177515z"/><path d="m0 1h13v13h-13z"/><path d="m14 1h13v13h-13z"/><path d="m0 16h13v13h-13z"/><path d="m14 16h13v13h-13z"/></g></svg>