<svg width="131" height="28" xmlns="http://www.w3.org/2000/svg">
  <g fill-rule="nonzero" fill="#FFF">
    <path d="M48.2695 27.889c-.856-.1733-1.7227-.4442-2.3186-.7259-1.2027-.5634-1.6144-.8884-3.2072-2.5787-.0867-.0975-.1625-.2167-.1625-.2817s-.0758-.1734-.1734-.2492c-.0866-.0867-.2492-.325-.3575-.531-.0975-.2166-.2384-.4875-.3034-.6067-.986-1.7769-1.3327-5.1357-.8018-7.682.1409-.65.3467-1.4085.466-1.6793.3792-.8668.7584-1.571.9642-1.8095.1192-.1191.2059-.26.2059-.3142 0-.1517 1.3652-1.4302 1.8636-1.7552.8126-.5093 1.6577-.8777 2.6979-1.1594.9318-.26 1.2027-.2817 3.1096-.2817 1.647 0 2.3295.0434 3.1421.2059.5851.1192 1.2027.2275 1.376.2492l.3251.0325.0325 1.5602c.0217 1.3977.0109 1.5494-.1517 1.4844-.0975-.0325-.3033-.0975-.455-.13-.1626-.0325-.7801-.1842-1.376-.3359-.8777-.2167-1.3436-.2709-2.6004-.2817l-1.517-.0108-.8342.39c-1.311.6176-2.3079 1.7444-2.9146 3.283-.5092 1.2894-.6718 3.6189-.3792 5.255.1517.8667.6717 2.2753.8343 2.2753.0541 0 .0975.065.0975.1408 0 .2276 1.1376 1.4302 1.7119 1.8203 1.2027.8126 2.9688 1.051 4.7673.65 1.0185-.2383 2.4596-.715 2.6654-.8992.065-.0434.1734-.0867.2492-.0867.1084 0 .1409.3467.1409 1.5494v1.5386l-.6718.195c-.7042.2058-1.5277.3792-3.1204.6717-.8343.1517-2.763.206-3.3047.0976zM78.7698 27.889c-1.7228-.5525-1.842-.6175-2.6437-1.3435-.466-.4334-.9102-1.0618-1.1268-1.6252-.466-1.2135-.4552-.9968-.4552-8.8521V8.5596h3.4564l.0325 6.9668c.0434 6.4793.0542 6.9994.2492 7.5953.4551 1.4302 1.647 1.9611 3.4455 1.5386.5526-.1409 1.5603-.6176 1.9937-.9644.5742-.455 1.8202-1.7552 2.2428-2.3511l.4984-.6935V8.5595h3.4672v18.9612h-3.4672v-3.4021l-.26.3575c-.2818.3792-.3468.455-1.0185 1.1593-1.376 1.4519-3.4022 2.3295-5.32 2.3078-.5092 0-1.0076-.0325-1.0943-.0541zM98.9552 27.629c-.856-.1733-1.6469-.3684-1.766-.4334-.13-.065-.4334-.1517-.6827-.195l-.455-.0867-.0325-1.6469c-.0217-1.3435 0-1.6469.1192-1.6469.13 0 .715.2384 1.9936.8235.1842.0866.39.1516.455.1516.0759 0 .4334.1084.8018.2384.5635.195.921.2384 2.1887.2384 1.4735.0108 1.5385 0 2.0803-.3034.4876-.26.7693-.52 1.2027-1.0943.4009-.5526.4442-1.3002.1083-1.9828-.4117-.8235-1.181-1.3869-2.9037-2.1562-.271-.1191-.7693-.3467-1.116-.4984-.336-.1625-.661-.2925-.7151-.2925-.2276 0-1.7445-.9426-2.3187-1.441-1.2352-1.0619-1.8094-2.2862-1.8094-3.8356 0-.8776.1408-1.701.3467-1.9286.0433-.0542.0867-.1842.0867-.2817 0-.1084.1191-.336.2708-.5093.1517-.1842.2709-.3575.2709-.39 0-.1625 1.051-1.0618 1.5494-1.3219 1.2135-.6284 1.712-.7368 3.8897-.7801 1.7228-.0325 2.2103 0 3.2072.1842.65.13 1.2893.2275 1.4085.2275.2384 0 .2384.0325.2384 1.517v1.5276l-.401-.0758c-.2275-.0325-.8342-.1842-1.3543-.325-1.1377-.3143-3.1963-.4551-4.128-.271-1.2028.2276-1.9179.9969-1.9179 2.0804 0 .5959.26 1.1051.8126 1.5927.4334.3792 1.5928 1.0077 2.4379 1.3219.2059.0758.4226.1842.4767.2383.065.0434.1734.0867.2492.0867.2492 0 2.2862 1.051 2.6438 1.3652.0866.0867.2058.1517.2492.1517.1842 0 1.4843 1.3544 1.701 1.777.7802 1.4951.7585 3.738-.0541 5.1573-.7693 1.376-2.2104 2.3729-4.1173 2.8713-1.4844.3792-2.9363.3684-5.0166-.0542zM5.4716 27.7807c-.8668-.1192-1.9828-.4117-2.3078-.596-.195-.1083-.4117-.2058-.466-.2058-.1841 0-.9859-.5959-1.4843-1.0835-.2492-.2492-.6176-.8017-.8343-1.2135C.0108 23.9343 0 23.891 0 22.58c0-1.1918.0325-1.4085.2817-2.026.5418-1.322 1.701-2.2429 3.4563-2.763 1.246-.3575 1.842-.4334 4.139-.5092 4.1172-.13 4.8107-.531 4.6482-2.698-.0542-.7475-.1084-.9425-.4334-1.4301-.661-.9968-1.4844-1.4627-2.9905-1.6794-.7367-.1084-1.0835-.0975-1.7877.0108-1.7228.2817-2.7521 1.051-3.1855 2.3837-.1734.52-.3034.7584-.4009.715-.0758-.0324-.325-.0866-.5526-.119-.3684-.0543-2.102-.4877-2.1778-.5418-.0433-.0325.325-.9643.6176-1.5386.0867-.195.2059-.3575.2492-.3575.0542 0 .0867-.0542.0867-.13 0-.1951 1.0726-1.1377 1.6686-1.4736 1.2785-.7151 2.882-1.051 4.8323-1.0293 1.2135.0108 2.687.2492 3.3372.5309 1.2243.5309 1.3327.5959 2.1561 1.4085.8018.8018 1.181 1.4952 1.5386 2.8063.26.9534.26 1.0834.3034 6.165l.0541 5.1791.9102-.0433.9101-.0434v2.0695l-2.5679-.0108h-2.5787l.0325-1.4627.0325-1.452-.2058.3251c-.5093.8126-1.6578 1.7444-2.763 2.2537-.9534.4334-3.1746.791-4.1389.661zm2.7954-2.1561c.9535-.2167 1.6253-.6285 2.4812-1.4844.5418-.5418.8452-.9752 1.1702-1.6578.4767-.986.596-1.4952.7151-3.153l.0759-1.051-.3143.2276c-.39.2817-1.3652.4226-3.4021.5093-2.9146.1192-4.1931.4659-5.1141 1.3977-.3684.3792-.5417.6609-.6718 1.1376-.2275.8018-.2167 1.0294.0542 1.8311.39 1.1485 1.4627 1.9828 2.9146 2.2537.9751.1734 1.2894.1734 2.0911-.0108zM26.4372 27.7807c-.7585-.0975-1.8745-.3792-2.362-.6067-.7043-.325-1.647-.9427-1.647-1.0619 0-.065-.065-.1083-.13-.1191-.2275-.0109-1.2351-1.311-1.6902-2.167-.2384-.4443-.5634-1.2677-.7368-1.8311-.3034-1.0077-.3142-1.0835-.3034-3.4672.0109-2.3945.0109-2.4595.336-3.4672 1.1484-3.6513 3.6621-5.645 7.1293-5.6558 2.3945 0 4.0523.8235 5.5583 2.7846l.2492.325-.0542-4.2256c-.0325-2.3187-.0975-4.4856-.13-4.789l-.0758-.5743H30.8795V.9101H36.3295l-.065.8668c-.2276 3.0338-.3143 7.9637-.2493 14.7463.0325 4.0523.0976 7.7253.13 8.1696l.065.8017.9102-.065.9101-.0541v2.0911h-5.1249l.065-1.5602.0759-1.571-.3684.5633c-.8343 1.3002-2.2753 2.3187-3.7814 2.6654-.8018.1842-1.8961.2817-2.4595.2167zm2.297-2.1453c1.1051-.2709 2.0803-.986 2.8279-2.102.2817-.4009.5092-.791.5092-.8451 0-.0542.0759-.2384.1626-.4117.8234-1.582.8234-5.8075 0-7.3894-.0867-.1734-.1626-.3576-.1626-.4118 0-.0541-.2275-.4334-.4984-.845-1.1593-1.7012-2.8062-2.4704-4.6156-2.1454-1.2786.2275-2.3079.921-3.0988 2.102-.921 1.3652-1.4736 4.0956-1.2352 6.0459.2167 1.701.65 3.077 1.2352 3.9439 1.1701 1.7444 2.9796 2.5028 4.8757 2.0586zM60.318 27.4448c-.0434-.0325-.0759-4.3014-.0759-9.4805V8.5596h3.5755v1.6577c.0109 1.6144.0109 1.636.195 1.311.3034-.5417 1.1919-1.6144 1.6253-1.961 1.2677-.9969 2.2428-1.3328 3.8897-1.3328h1.2244V9.914c0 .9535-.0434 1.6795-.0975 1.6795-.0542 0-.401-.0759-.7693-.1734-.6068-.1517-.7368-.1517-1.5494.0108-.4768.0975-1.1594.336-1.517.5201-.8125.4334-1.8202 1.4194-2.492 2.427l-.5092.7693v12.3735h-1.7119c-.9426 0-1.7552-.0325-1.7878-.0759zM114.7417 13.7603V0h3.4672v11.9509l.325-.455c.9427-1.2894 2.5896-2.5138 4.0414-2.9905.726-.2384 1.0294-.2709 2.2212-.2709.9643.0109 1.506.0542 1.8094.1734.2384.0975.531.195.6501.2275.3576.0867 1.3869.9318 1.7986 1.4844.2167.2817.5201.8235.6826 1.2135l.2817.6935v15.4939h-3.348l-.0325-6.956c-.0325-6.6743-.0433-6.9886-.26-7.5953-.2709-.7801-.6393-1.2027-1.2894-1.4844-.6392-.2709-1.2568-.2709-2.1994-.0108-1.2569.3575-1.8745.7584-3.0663 1.9828-.455.4659-1.0077 1.1051-1.2244 1.4302l-.39.585v12.0485h-3.4672V13.7603z"/>
  </g>
</svg>
